# xmcd
#
# Track frame offsets:
#	150
#	18520
#	33292
#	51272
#	68702
#	82462
#	101810
#	127130
#	138645
#	159060
#	173640
#	191022
#	203597
#	219527
#	234727
#	252207
#	267727
#	283077
#	299487
#	314507
#	329487
#
# Disc length: 4617 seconds
#
# Revision: 0
# Processed by: cddbd v1.4PL0 Copyright (c) Steve Scherf et al.
# Submitted via: EasyCDDAExtractor 4.6.0.1
#
DISCID=50120715
DTITLE=Camilo Sesto - Exitos
DYEAR=1900
DGENRE=
TTITLE0=Algo de mí
TTITLE1=Algo más
TTITLE2=Amor...amar
TTITLE3=Ayudadme
TTITLE4=Con el viento a tu favor
TTITLE5=Donde estés, con quien estés
TTITLE6=El amor de mi vida
TTITLE7=Fresa salvaje
TTITLE8=Has nacido libre
TTITLE9=Jamás
TTITLE10=La culpa ha sido mía
TTITLE11=Melina
TTITLE12=Mi buen amor
TTITLE13=Mi mundo tú
TTITLE14=Perdóname
TTITLE15=Piel de angel
TTITLE16=Qué más te dá
TTITLE17=Quiéres ser mi amante
TTITLE18=Si tú te vas
TTITLE19=Todo por nada
TTITLE20=Vivir así es morir de amor
EXTD=
EXTT0=
EXTT1=
EXTT2=
EXTT3=
EXTT4=
EXTT5=
EXTT6=
EXTT7=
EXTT8=
EXTT9=
EXTT10=
EXTT11=
EXTT12=
EXTT13=
EXTT14=
EXTT15=
EXTT16=
EXTT17=
EXTT18=
EXTT19=
EXTT20=
PLAYORDER=
